<?xml version="1.0" standalone="no"?>
<svg viewBox="0 0 200 200" xmlns="http://www.w3.org/2000/svg">
  <path fill="#e8becc" d="M37.6,-52.4C49.6,-43,60.9,-33.2,66.4,-20.6C71.9,-7.9,71.7,7.6,68.7,24.1C65.8,40.5,60.2,57.9,48.3,67.3C36.5,76.7,18.2,78.1,2.4,74.7C-13.4,71.4,-26.7,63.3,-39.7,54.2C-52.6,45.2,-65.1,35.2,-68.4,22.7C-71.7,10.3,-65.9,-4.6,-60.4,-19C-54.9,-33.4,-49.7,-47.4,-39.7,-57.4C-29.7,-67.4,-14.8,-73.6,-1,-72.2C12.8,-70.8,25.5,-61.8,37.6,-52.4Z" transform="translate(100 100)" />
</svg>
